<svg aria-hidden="true" style="position:absolute;width:0;height:0;overflow:hidden" xmlns="http://www.w3.org/2000/svg"><defs><symbol id="icon-Polygon-2" viewBox="0 0 28 32"><path fill="#4a86ff" style="fill:var(--color1, #4a86ff)" d="M27.636 16 .363 31.746V.254L27.636 16z"/></symbol><symbol id="icon-save-information" viewBox="0 0 60 32"><path fill="#ef3959" style="fill:var(--color2, #ef3959)" d="M10.039 0h39.529c5.544 0 10.039 4.495 10.039 10.039v.627c0 5.544-4.495 10.039-10.039 10.039H10.039C4.494 20.705 0 16.21 0 10.666v-.627C0 4.494 4.495 0 10.039 0z"/><path fill="#fff" style="fill:var(--color3, #fff)" d="M14.095 9.253h1.295c-.019-1.139-.955-1.925-2.377-1.925-1.401 0-2.427.774-2.421 1.934-.003.942.661 1.482 1.741 1.741l.696.175c.696.168 1.082.368 1.086.799-.003.468-.446.786-1.132.786-.702 0-1.207-.324-1.251-.964h-1.307c.034 1.382 1.023 2.096 2.574 2.096 1.56 0 2.477-.746 2.48-1.915-.003-1.064-.805-1.628-1.915-1.878l-.574-.137c-.555-.128-1.02-.334-1.011-.792 0-.412.365-.714 1.026-.714.646 0 1.042.293 1.092.795zm3.631 4.641c.708 0 1.167-.309 1.401-.755h.037v.664h1.26v-3.232c0-1.142-.967-1.622-2.034-1.622-1.148 0-1.903.549-2.087 1.422l1.229.1c.09-.318.374-.552.852-.552.452 0 .711.228.711.621v.019c0 .309-.328.349-1.16.431-.948.087-1.8.406-1.8 1.476 0 .948.677 1.429 1.591 1.429zm.381-.917c-.409 0-.702-.19-.702-.555 0-.374.309-.558.777-.624.29-.041.764-.109.923-.215v.508c0 .502-.415.886-.998.886zm7.644-3.965h-1.407l-.992 3.428h-.05l-.995-3.428h-1.404l1.675 4.791h1.497l1.675-4.791zm2.701 4.885c1.185 0 1.984-.577 2.171-1.466l-1.229-.081c-.134.365-.477.555-.92.555-.664 0-1.086-.44-1.086-1.154v-.003h3.263v-.365c0-1.628-.986-2.433-2.252-2.433-1.41 0-2.324 1.001-2.324 2.48 0 1.519.902 2.467 2.377 2.467zm-1.064-2.972a1.012 1.012 0 0 1 1.033-.983c.577 0 .976.412.98.983h-2.012zm6.151 2.879h4.554V12.7H35.41v-.044l.933-.914c1.313-1.198 1.666-1.797 1.666-2.524 0-1.107-.905-1.89-2.274-1.89-1.341 0-2.262.802-2.258 2.056h1.282c-.003-.611.384-.986.967-.986.562 0 .98.349.98.911 0 .508-.312.858-.892 1.416l-2.274 2.106v.973zm5.785 0h1.394l2.651-5.269v-1.12h-4.483v1.104h3.085v.044l-2.648 5.241zm6.978.798h.736l.006-.721c1.351-.103 2.134-.82 2.137-1.903-.003-1.064-.805-1.628-1.915-1.878l-.184-.044.013-1.56c.415.097.668.362.705.755h1.295c-.016-1.032-.786-1.772-1.987-1.903l.006-.733h-.736l-.006.727c-1.22.119-2.081.855-2.074 1.919-.003.942.661 1.482 1.741 1.741l.299.075-.016 1.65c-.508-.097-.852-.409-.886-.93h-1.307c.031 1.26.858 1.965 2.18 2.081l-.006.724zm.755-1.874.013-1.457c.483.153.746.349.749.705-.003.377-.29.658-.761.752zm-.712-2.861c-.39-.134-.671-.337-.664-.696 0-.334.237-.593.677-.683l-.013 1.379z"/><path fill="#ef3959" style="fill:var(--color2, #ef3959)" d="M19.451 20.706H29.49l-15.059 9.411 5.02-9.412z"/></symbol><symbol id="icon-mdi_microsoft-windows" viewBox="0 0 31 32"><path fill="#4a86ff" style="fill:var(--color1, #4a86ff)" d="M3.922 15.809V8.946l7.843-1.726v8.471l-7.843.118zM26.144 4.044v11.438l-13.072.196V6.933l13.072-2.889zM3.922 17.116l7.843.118v8.902l-7.843-1.503v-7.516zm22.222.327v11.438l-13.072-2.497v-9.137l13.072.196z"/></symbol><symbol id="icon-simple-icons_ios" viewBox="0 0 31 32"><path fill="#0d224e" style="fill:var(--color4, #0d224e)" d="M1.438 8.031A1.416 1.416 0 0 0 .11 9.989a1.411 1.411 0 0 0 1.328.865c.81 0 1.451-.627 1.451-1.412S2.248 8.03 1.438 8.03zm9.948.026c-4.392 0-7.137 2.994-7.137 7.752 0 4.797 2.745 7.778 7.137 7.778 4.366 0 7.124-2.98 7.124-7.778 0-4.758-2.758-7.752-7.124-7.752zm14.17 0c-3.268 0-5.595 1.804-5.595 4.484 0 2.131 1.32 3.464 4.091 4.105l1.948.471c1.895.431 2.667 1.059 2.667 2.144 0 1.255-1.268 2.144-3.072 2.144-1.843 0-3.229-.902-3.373-2.288h-2.614c.105 2.771 2.379 4.471 5.83 4.471 3.647 0 5.935-1.791 5.935-4.64 0-2.235-1.307-3.503-4.34-4.196l-1.739-.392c-1.843-.444-2.601-1.033-2.601-2.026 0-1.255 1.15-2.091 2.85-2.091 1.712 0 2.889.85 3.02 2.248h2.562c-.065-2.64-2.248-4.431-5.569-4.431zm-14.17 2.288c2.667 0 4.379 2.131 4.379 5.464 0 3.359-1.712 5.49-4.379 5.49-2.693 0-4.392-2.131-4.392-5.49 0-3.333 1.699-5.464 4.392-5.464zM.145 12.292v11.046h2.6V12.292h-2.6z"/></symbol><symbol id="icon-fontisto_android" viewBox="0 0 26 32"><path fill="#a4c2ff" style="fill:var(--color5, #a4c2ff)" d="M9.369 6.745a.742.742 0 0 0 0-1.482h-.013a.67.67 0 0 0-.499.218.755.755 0 0 0 0 1.046.684.684 0 0 0 .501.219h.013l-.001-.001zm8.019 0h.013a.68.68 0 0 0 .499-.217.759.759 0 0 0-.227-1.208.675.675 0 0 0-.273-.057h-.013a.738.738 0 0 0-.74.741.742.742 0 0 0 .74.741l.001.001zM1.96 10.241a1.947 1.947 0 0 1 1.938 1.938v8.207c0 .527-.215 1.005-.561 1.35a1.844 1.844 0 0 1-1.339.57h-.049a1.948 1.948 0 0 1-1.947-1.947V12.15c0-.527.219-1.003.57-1.342.343-.35.821-.568 1.35-.568h.038zm20.14.361v12.693a2.01 2.01 0 0 1-.609 1.444 2 2 0 0 1-1.434.609h-1.454v4.313a1.957 1.957 0 1 1-3.914 0v-4.313h-2.622v4.324a1.947 1.947 0 0 1-1.947 1.947h-.038a1.86 1.86 0 0 1-1.342-.57 1.883 1.883 0 0 1-.57-1.352v-.036l-.018-4.313H6.734a2.077 2.077 0 0 1-2.076-2.076V10.604l17.445-.001zm-4.408-7.693a8.416 8.416 0 0 1 3.23 2.885l.02.032a7.29 7.29 0 0 1 1.216 4.054v.04H4.581v-.041c0-1.51.455-2.913 1.233-4.081l-.017.026a8.38 8.38 0 0 1 3.22-2.894l.047-.022L7.715.418c-.023-.03-.039-.064-.046-.101s-.007-.075.002-.111a.25.25 0 0 1 .138-.167h.001c.032-.02.067-.033.105-.039s.075-.003.111.008a.255.255 0 0 1 .165.142l.001.001 1.37 2.508c1.125-.505 2.437-.798 3.819-.798s2.694.294 3.88.822l-.061-.024L18.57.151a.269.269 0 0 1 .165-.144c.036-.011.074-.014.112-.008s.073.019.105.039h-.001a.258.258 0 0 1 .14.168.25.25 0 0 1-.045.214l-1.353 2.491zm9.064 9.274v8.181a1.947 1.947 0 0 1-1.947 1.947h-.038a1.86 1.86 0 0 1-1.342-.57 1.883 1.883 0 0 1-.57-1.352v-8.244c0-.526.219-1.001.57-1.338a1.887 1.887 0 0 1 1.339-.562h.067c.527 0 1.005.215 1.35.561.352.338.57.813.57 1.34v.037z"/></symbol><symbol id="icon-uil_linux" viewBox="0 0 31 32"><path fill="#0d224e" style="fill:var(--color4, #0d224e)" d="M25.752 23.129c-.131-.261-.261-.523-.261-.784 0-.523-.261-.915-.654-1.307-.131-.131-.392-.261-.523-.261.784-2.353-.392-4.706-1.699-6.405-1.046-1.569-2.614-2.745-2.484-4.837 0-2.484.261-7.059-4.314-6.667-4.706.261-3.399 5.098-3.529 6.797 0 1.438-.654 2.876-1.699 4.052a3.997 3.997 0 0 0-.654.915c-1.307 1.569-1.961 3.66-1.961 5.621-.261.261-.523.523-.654.784-.131.131-.261.261-.261.392-.131.131-.392.261-.654.392-.523.131-.915.392-1.176.915-.131.392-.261.915-.131 1.438.131.261.131.523 0 .915-.261.523-.261 1.176 0 1.83.392.523 1.046.654 1.961.784.654 0 1.438.261 2.091.523.654.392 1.438.654 2.222.654.392 0 .915-.131 1.307-.261.392-.261.654-.523.784-.915.523 0 1.307-.261 2.222-.261.784 0 1.569.261 2.614.131 0 .131 0 .261.131.392.261.654.915 1.176 1.699 1.307h.261c1.046-.131 2.091-.654 2.745-1.438.523-.523 1.176-.915 1.83-1.176.784-.392 1.307-.654 1.438-1.307.131-.915-.131-1.438-.654-2.222zm-9.02-16.732c.784.131 1.438.784 1.307 1.569 0 .392-.131.784-.392 1.176h-.131c-.261-.131-.392-.131-.523-.261.131-.131.131-.392.261-.654 0-.523-.261-.915-.523-.915-.392 0-.654.392-.654.915v.131c-.131-.131-.392-.131-.523-.261v-.131c-.131-.654.392-1.438 1.176-1.569zm-.392 2.614c.131.131.392.261.523.261s.392.131.523.261c.261.131.523.261.523.654s-.392.784-1.176 1.046c-.261.131-.392.131-.523.261a2.21 2.21 0 0 1-1.307.392c-.392 0-.784-.261-1.046-.523-.131-.131-.261-.261-.523-.392-.131-.131-.392-.392-.523-.784 0-.131.131-.261.261-.392.392-.261.523-.392.654-.523l.131-.131c.261-.392.784-.654 1.307-.654.392.131.784.261 1.176.523zm-2.745-2.353c.523 0 .915.523 1.046 1.438v.261c-.131 0-.392.131-.523.261v-.261c0-.392-.261-.784-.523-.654-.261 0-.392.392-.392.784 0 .261.131.392.261.523 0 0-.131.131-.261.131-.261-.261-.523-.654-.523-1.046 0-.784.392-1.438.915-1.438zm-1.307 21.046c-.915.392-2.091.261-2.876-.261-.784-.392-1.438-.523-2.353-.523-.654-.131-1.307-.131-1.438-.392s-.131-.654.131-1.307c.131-.392.131-.784 0-1.176s-.131-.654 0-1.046.392-.523.784-.654.654-.261.915-.523c.131-.131.261-.261.392-.523.392-.523.654-.784 1.046-.784.784.131 1.438 1.307 1.961 2.484.261.392.523.915.915 1.307.523.654 1.176 1.569 1.176 2.092 0 .654-.261 1.046-.654 1.307zm6.405-2.876c0 .131 0 .131-.131.261a4.987 4.987 0 0 1-5.359.392l-.784-1.176c1.176-.131.915-1.699-1.569-3.268-2.614-1.699-.784-4.837.131-6.274.131-.131.131 0-.392 1.046-.392.784-1.176 2.745-.131 4.183 0-1.046.261-2.091.654-3.137.915-1.699 1.569-3.66 1.961-5.621.131.131.131.131.261.131.131.131.261.261.392.261.261.392.784.523 1.176.523h.131c.523 0 1.046-.131 1.438-.523.131-.131.261-.261.523-.261.392-.131.784-.392 1.176-.784.523 1.699 1.046 3.268 1.83 4.706a13.893 13.893 0 0 1 1.176 3.268c.392 0 .915.131 1.307.392 1.046.523 1.438.915 1.307 1.569h-.261c0-.392-.261-.784-1.176-1.176s-1.699-.392-1.961.523c-.131 0-.261.131-.392.131-1.046.523-1.046 1.961-1.176 3.399.131.523 0 .915-.131 1.438zm6.013.785c-.784.261-1.438.784-1.961 1.438-.523.784-1.438 1.307-2.484 1.176-.523 0-1.046-.392-1.176-.915-.131-.784-.131-1.569.261-2.353.131-.523.261-.915.392-1.438.131-1.569.131-2.484.784-2.876 0 .654.392 1.046.915 1.307.654 0 1.307-.131 1.83-.654h.261c.392 0 .654 0 .915.261s.392.654.392.915c0 .392.261.784.392 1.176.654.654.654 1.046.654 1.176-.131.261-.654.523-1.176.784zM12.941 9.926c-.131 0-.131 0-.131.131 0 0 0 .131.131.131s.131.131.131.131c.392.523 1.046.784 1.83.915.654-.131 1.307-.261 1.961-.784l.784-.392c.131 0 .131-.131.131-.131 0-.131 0-.131-.131-.131-.261.131-.654.261-.915.392-.523.392-1.176.654-1.83.654s-1.176-.392-1.569-.784c-.131 0-.261-.131-.392-.131z"/></symbol><symbol id="icon-wpf_mac-os" viewBox="0 0 31 32"><path fill="#ef3959" style="fill:var(--color2, #ef3959)" d="M28.88 22.984c-.722 1.598-1.067 2.312-1.993 3.724-1.295 1.972-3.123 4.432-5.383 4.449-2.01.017-2.529-1.312-5.257-1.29-2.728.013-3.296 1.314-5.309 1.294-2.26-.021-3.99-2.237-5.286-4.205-3.624-5.52-4.006-11.99-1.767-15.433 1.584-2.441 4.092-3.874 6.446-3.874 2.398 0 3.905 1.318 5.887 1.318 1.923 0 3.095-1.321 5.868-1.321 2.097 0 4.315 1.143 5.899 3.114-5.184 2.84-4.341 10.244.895 12.226zM19.981 5.441c1.009-1.295 1.774-3.122 1.496-4.985-1.646.112-3.57 1.163-4.695 2.524-1.018 1.239-1.863 3.081-1.534 4.862 1.796.058 3.654-1.012 4.732-2.401z"/></symbol><symbol id="icon-simple-icons_googlechrome" viewBox="0 0 31 32"><path fill="#4a86ff" style="fill:var(--color1, #4a86ff)" d="M15.686.122A15.656 15.656 0 0 0 3.44 6.006l5.167 8.952a7.13 7.13 0 0 1 7.078-6.279H29.66A15.684 15.684 0 0 0 15.684.123zM2.524 7.273A15.609 15.609 0 0 0 0 15.809c0 7.859 5.778 14.367 13.319 15.509l5.167-8.95a7.126 7.126 0 0 1-8.974-2.993L2.524 7.274zm17.441 2.831a7.123 7.123 0 0 1 1.896 9.268l.003.001h-.003l-6.986 12.101c.269.013.54.021.812.021 8.663 0 15.686-7.023 15.686-15.686 0-2.013-.379-3.936-1.069-5.705H19.966zm-4.279 11.409a5.705 5.705 0 1 1 0-11.41 5.705 5.705 0 0 1 0 11.41z"/></symbol></defs></svg>